<svg xmlns="http://www.w3.org/2000/svg" width="63.22" height="84.88" viewBox="0 0 63.22 84.88">
  <metadata><?xpacket begin="﻿" id="W5M0MpCehiHzreSzNTczkc9d"?>
<x:xmpmeta xmlns:x="adobe:ns:meta/" x:xmptk="Adobe XMP Core 5.6-c142 79.160924, 2017/07/13-01:06:39        ">
   <rdf:RDF xmlns:rdf="http://www.w3.org/1999/02/22-rdf-syntax-ns#">
      <rdf:Description rdf:about=""/>
   </rdf:RDF>
</x:xmpmeta>
                                                                                                    
                                                                                                    
                                                                                                    
                                                                                                    
                                                                                                    
                                                                                                    
                                                                                                    
                                                                                                    
                                                                                                    
                                                                                                    
                                                                                                    
                                                                                                    
                                                                                                    
                                                                                                    
                                                                                                    
                                                                                                    
                                                                                                    
                                                                                                    
                                                                                                    
                                                                                                    
                           
<?xpacket end="w"?></metadata>
<defs>
    <style>
      .cls-1 {
        fill: #7dbd00;
        fill-rule: evenodd;
      }
    </style>
  </defs>
  <path id="Composite_Path" data-name="Composite Path" class="cls-1" d="M1141.98,2951.33a3.528,3.528,0,0,0,1.25-1.36,3.1,3.1,0,0,0,.34-1.72,3.96,3.96,0,0,0-.66-1.79l-0.18-.27a3.982,3.982,0,0,0-1.4-1.29,3.142,3.142,0,0,0-1.73-.35,3.724,3.724,0,0,0-1.74.63l-1.95,1.3,4.1,6.16Zm-3.66-5.47a1.607,1.607,0,0,1,1.54-.21,3.4,3.4,0,0,1,1.51,1.39l0.25,0.38a3.3,3.3,0,0,1,.67,1.9,1.61,1.61,0,0,1-.79,1.34l-0.63.43-3.2-4.8Zm-1.64,3.98a4.677,4.677,0,0,0-1.15-1.66,3,3,0,0,0-1.57-.76,3.1,3.1,0,0,0-1.73.24,3.226,3.226,0,0,0-1.38,1.07,3.127,3.127,0,0,0-.55,1.65,4.5,4.5,0,0,0,.4,1.98l0.14,0.35a4.7,4.7,0,0,0,1.14,1.64,2.987,2.987,0,0,0,1.57.75,3.231,3.231,0,0,0,1.74-.24,3.191,3.191,0,0,0,1.38-1.09,3.061,3.061,0,0,0,.54-1.65,4.863,4.863,0,0,0-.39-1.97Zm-1.33.95a2.966,2.966,0,0,1,.27,1.74,1.4,1.4,0,0,1-.89,1.02,1.441,1.441,0,0,1-1.37-.08,3.035,3.035,0,0,1-1.07-1.43l-0.13-.31a2.966,2.966,0,0,1-.28-1.76,1.5,1.5,0,0,1,.91-1.01,1.4,1.4,0,0,1,1.35.07,2.984,2.984,0,0,1,1.07,1.43Zm-5.09,1.76a4.2,4.2,0,0,0-.8-1.82,3,3,0,0,0-1.41-1.04,3.617,3.617,0,0,0-3.4.71,3.238,3.238,0,0,0-.89,1.52,4.636,4.636,0,0,0-.01,2l0.08,0.36a4.134,4.134,0,0,0,.8,1.8,3.036,3.036,0,0,0,1.42,1.02,3.472,3.472,0,0,0,1.79.08,3.361,3.361,0,0,0,1.61-.8,3.081,3.081,0,0,0,.89-1.51,4.606,4.606,0,0,0-.01-1.99Zm-1.51.68a3.139,3.139,0,0,1-.08,1.84,1.451,1.451,0,0,1-1.1.85,1.436,1.436,0,0,1-1.37-.36,3.143,3.143,0,0,1-.78-1.67l-0.08-.35a2.956,2.956,0,0,1,.08-1.83,1.439,1.439,0,0,1,1.1-.85,1.478,1.478,0,0,1,1.35.35,3.044,3.044,0,0,1,.8,1.66Zm-6.29.51-3.1.07-0.05-2.45,3.49-.07-0.03-1.22-5.11.1,0.16,7.96,1.62-.03-0.06-3.06,3.11-.08Zm-7.96-3.67-1.55-.36-0.69,2.94-3.03-.7,0.7-2.94-1.56-.36-1.8,7.63,1.55,0.36,0.83-3.52,3.03,0.7-0.83,3.53,1.55,0.36Zm-11.13,3.37a1.411,1.411,0,0,1-.86-0.16c-0.91-.4-1.21-0.95-0.89-1.64l-1.43-.64a2.056,2.056,0,0,0-.16,1.28,2.489,2.489,0,0,0,.63,1.21,3.9,3.9,0,0,0,1.33.92,3.359,3.359,0,0,0,2.03.33,1.789,1.789,0,0,0,1.29-1.07,1.881,1.881,0,0,0,.04-1.54,4.764,4.764,0,0,0-1.36-1.67,4.331,4.331,0,0,1-.81-0.85,0.637,0.637,0,0,1-.11-0.66,0.661,0.661,0,0,1,.52-0.4,1.556,1.556,0,0,1,.9.16,1.483,1.483,0,0,1,.73.62,0.9,0.9,0,0,1,0,.8l1.41,0.63a2.161,2.161,0,0,0,.16-1.2,2.3,2.3,0,0,0-.57-1.13,3.7,3.7,0,0,0-1.19-.85,4.048,4.048,0,0,0-1.43-.35,2.312,2.312,0,0,0-1.2.26,1.67,1.67,0,0,0-.73.82,1.986,1.986,0,0,0,.42,2.17,7.17,7.17,0,0,0,.96.96,4.692,4.692,0,0,1,.83.88,0.751,0.751,0,0,1,.02.7A0.729,0.729,0,0,1,1103.37,2953.44Zm-3.12-5.06-2.47-1.66,0.74-1.1,2.89,1.94,0.74-1.1-4.18-2.8-4.08,6.04,4.19,2.81,0.74-1.1-2.9-1.95,1.11-1.65,2.48,1.67Zm-8.58-.54,1.24,1.18,0.06-.06,1.02-3.51a2.465,2.465,0,0,0,1.36.08,2.438,2.438,0,0,0,1.19-.75,2.234,2.234,0,0,0,.7-1.82,3.152,3.152,0,0,0-1.1-1.91l-2.09-1.98-5.53,5.8,1.17,1.1,2.01-2.11,0.93,0.87Zm2.54-6.62,0.93,0.88a1.424,1.424,0,0,1,.48.87,1.084,1.084,0,0,1-.32.8,1,1,0,0,1-.8.35,1.381,1.381,0,0,1-.87-0.43l-0.93-.89Zm-3.83-.6-1.83-2.45,2.03-1.5,2.05,2.76,0.68-.49-3-4.06-6.08,4.49,0.95,1.29,2.7-1.99,1.82,2.45Zm53.49-51.23a1.134,1.134,0,0,1-.9.26,1.817,1.817,0,0,1-.92-0.6,1.349,1.349,0,0,1-.44-1.19,2.546,2.546,0,0,1,.9-1.34l0.36-.34a2.618,2.618,0,0,1,1.4-.75,1.4,1.4,0,0,1,1.14.52,1.9,1.9,0,0,1,.54.98,1.2,1.2,0,0,1-.37.89l1.06,1.15a2.93,2.93,0,0,0,.81-2.02,3.04,3.04,0,0,0-.92-2.03,3.2,3.2,0,0,0-1.45-.92,2.853,2.853,0,0,0-1.66.04,4.492,4.492,0,0,0-1.65,1l-0.33.31a3.879,3.879,0,0,0-1.37,2.41,2.861,2.861,0,0,0,.86,2.33,3.171,3.171,0,0,0,1.97,1.1,2.74,2.74,0,0,0,2.03-.66Zm-1.2-7.93-1.27-.97-4.57,5.96,1.27,0.97Zm-3.52-2.7-1.4-.71-2.25,4.46-0.49-5.82-1.4-.71-3.41,6.76,1.4,0.71,2.24-4.45,0.5,5.82,1.4,0.7Zm-10.79,3.5,1.66,0.37-1.14-8.27-1.44-.32-4.5,7.04,1.65,0.36,0.92-1.65,2.72,0.6Zm-0.63-6.13,0.34,2.98-1.89-.4Zm-4.94.72-3.09.08,0.03,1.23,1.47-.03,0.04,1.42a1.764,1.764,0,0,1-1.29.45,1.636,1.636,0,0,1-1.4-.6,3.108,3.108,0,0,1-.52-1.87l-0.01-.51a3.363,3.363,0,0,1,.39-1.87,1.464,1.464,0,0,1,1.25-.66,1.507,1.507,0,0,1,1.03.3,1.667,1.667,0,0,1,.5,1.01l1.57-.05a2.831,2.831,0,0,0-.98-1.89,3.364,3.364,0,0,0-2.2-.6,3.519,3.519,0,0,0-1.75.5,3.089,3.089,0,0,0-1.11,1.33,4.888,4.888,0,0,0-.34,2.03l0.02,0.52a4.531,4.531,0,0,0,.47,1.96,2.92,2.92,0,0,0,1.22,1.24,3.682,3.682,0,0,0,1.81.39,5.247,5.247,0,0,0,1.76-.34,2.887,2.887,0,0,0,1.22-.86Zm-8.11,4.96,1.6-.42-0.01-.07-2.33-2.44a2.4,2.4,0,0,0,.78-1.02,2.175,2.175,0,0,0,0-1.29,1.906,1.906,0,0,0-1.11-1.38,3.272,3.272,0,0,0-2.14-.04l-2.71.72,1.86,7.02,1.5-.41-0.67-2.55,1.2-.31Zm-4.08-5.07,1.21-.31a1.343,1.343,0,0,1,.96.02,0.909,0.909,0,0,1,.48.62,0.88,0.88,0,0,1-.13.78,1.358,1.358,0,0,1-.81.49l-1.2.32Zm-2.26,2.76a4.463,4.463,0,0,0-1.27-1.49,3.143,3.143,0,0,0-1.61-.59,3.355,3.355,0,0,0-1.7.41,3.248,3.248,0,0,0-1.27,1.19,2.869,2.869,0,0,0-.4,1.66,4.511,4.511,0,0,0,.57,1.89l0.17,0.32a4.142,4.142,0,0,0,1.25,1.47,2.914,2.914,0,0,0,1.61.57,3.251,3.251,0,0,0,1.69-.41,3.21,3.21,0,0,0,1.28-1.19,2.882,2.882,0,0,0,.4-1.67,4.691,4.691,0,0,0-.56-1.87Zm-1.24,1.04a2.619,2.619,0,0,1,.37,1.59,1.63,1.63,0,0,1-2.16,1.14,2.508,2.508,0,0,1-1.12-1.19l-0.15-.28a2.6,2.6,0,0,1-.37-1.58,1.5,1.5,0,0,1,.82-1.05,1.448,1.448,0,0,1,1.32-.1,2.584,2.584,0,0,1,1.14,1.19Z" transform="translate(-1084.22 -2873.25)"/>
</svg>
