<svg xmlns="http://www.w3.org/2000/svg" width="32.38" height="40.47" viewBox="0 0 32.38 40.47">
  <metadata><?xpacket begin="﻿" id="W5M0MpCehiHzreSzNTczkc9d"?>
<x:xmpmeta xmlns:x="adobe:ns:meta/" x:xmptk="Adobe XMP Core 5.6-c142 79.160924, 2017/07/13-01:06:39        ">
   <rdf:RDF xmlns:rdf="http://www.w3.org/1999/02/22-rdf-syntax-ns#">
      <rdf:Description rdf:about=""/>
   </rdf:RDF>
</x:xmpmeta>
                                                                                                    
                                                                                                    
                                                                                                    
                                                                                                    
                                                                                                    
                                                                                                    
                                                                                                    
                                                                                                    
                                                                                                    
                                                                                                    
                                                                                                    
                                                                                                    
                                                                                                    
                                                                                                    
                                                                                                    
                                                                                                    
                                                                                                    
                                                                                                    
                                                                                                    
                                                                                                    
                           
<?xpacket end="w"?></metadata>
<defs>
    <style>
      .cls-1 {
        fill: #7dbd00;
        fill-rule: evenodd;
      }
    </style>
  </defs>
  <path id="Composite_Path" data-name="Composite Path" class="cls-1" d="M1108.07,2922.86l4.8,6.7-9.23-1.59a7.475,7.475,0,0,1-6.41-7.11c1.8,0.31,6.41,1.11,8.49,1.45Zm0.99-.67,0.48-2.58c0.36-2.11,1.17-6.79,1.49-8.61a7.677,7.677,0,0,1,4.49,8.48l-1.65,9.41Zm-6.58-7.12,4.46,6.22-8.6-1.49a7.014,7.014,0,0,1-6-6.61c1.73,0.3,6.01,1.04,7.94,1.35Zm8.29-5.49c-0.49-5.22-5.64-7.07-5.7-7.09l-0.8.46s-1.11,6.32-1.52,8.82l-0.39,2.03-1.84-.43c-2.48-.41-8.65-1.49-8.71-1.5l-0.71.58c0,0.07-.07,5.81,4.89,7.93,0.06,1.33.68,7.66,7.45,8.77l10.43,1.81,8.55,11.93,0.06,0.08s-0.01-.01.98-0.7l-8.61-12.01,1.85-10.59C1117.96,2912.16,1110.84,2909.61,1110.77,2909.58Zm-7.29,4.81,0.45-2.42c0.33-1.97,1.09-6.31,1.4-8.06a7.184,7.184,0,0,1,4.15,7.93l-1.54,8.78Z" transform="translate(-1091.09 -2902.5)"/>
</svg>
