<svg xmlns="http://www.w3.org/2000/svg" width="148.69" height="148.41" viewBox="0 0 148.69 148.41">
  <metadata><?xpacket begin="﻿" id="W5M0MpCehiHzreSzNTczkc9d"?>
<x:xmpmeta xmlns:x="adobe:ns:meta/" x:xmptk="Adobe XMP Core 5.6-c142 79.160924, 2017/07/13-01:06:39        ">
   <rdf:RDF xmlns:rdf="http://www.w3.org/1999/02/22-rdf-syntax-ns#">
      <rdf:Description rdf:about=""/>
   </rdf:RDF>
</x:xmpmeta>
                                                                                                    
                                                                                                    
                                                                                                    
                                                                                                    
                                                                                                    
                                                                                                    
                                                                                                    
                                                                                                    
                                                                                                    
                                                                                                    
                                                                                                    
                                                                                                    
                                                                                                    
                                                                                                    
                                                                                                    
                                                                                                    
                                                                                                    
                                                                                                    
                                                                                                    
                                                                                                    
                           
<?xpacket end="w"?></metadata>
<defs>
    <style>
      .cls-1 {
        fill: #7dbd00;
        fill-rule: evenodd;
      }
    </style>
  </defs>
  <path id="Path" class="cls-1" d="M1123.01,2841.42a15.643,15.643,0,0,1,17.16,2.81l6.62,6.78a51.819,51.819,0,0,0,17.79,11.04l9.02,2.92a15.572,15.572,0,0,1,10.12,14.1l-0.15,9.47a51.989,51.989,0,0,0,4.73,20.38l4.3,8.43c2.68,5.28,1.39,12.99-2.87,17.13l-6.81,6.62a52.148,52.148,0,0,0-11.11,17.78l-2.95,9.01a15.693,15.693,0,0,1-14.16,10.12l-9.49-.12a52.321,52.321,0,0,0-20.44,4.77l-8.47,4.31c-5.3,2.69-13.02,1.42-17.16-2.82l-6.62-6.78a51.778,51.778,0,0,0-17.8-11.03l-9.02-2.92c-5.64-1.83-10.2-8.18-10.11-14.11l0.14-9.47a51.844,51.844,0,0,0-4.72-20.38l-4.3-8.43c-2.69-5.28-1.4-12.99,2.87-17.13l6.81-6.61a52.19,52.19,0,0,0,11.11-17.79l2.95-9c1.84-5.64,8.22-10.2,14.16-10.13l9.49,0.12a52.186,52.186,0,0,0,20.44-4.77Z" transform="translate(-1045.31 -2840)"/>
</svg>
