<svg xmlns="http://www.w3.org/2000/svg" width="123.69" height="133.94" viewBox="0 0 123.69 133.94">
  <metadata><?xpacket begin="﻿" id="W5M0MpCehiHzreSzNTczkc9d"?>
<x:xmpmeta xmlns:x="adobe:ns:meta/" x:xmptk="Adobe XMP Core 5.6-c142 79.160924, 2017/07/13-01:06:39        ">
   <rdf:RDF xmlns:rdf="http://www.w3.org/1999/02/22-rdf-syntax-ns#">
      <rdf:Description rdf:about=""/>
   </rdf:RDF>
</x:xmpmeta>
                                                                                                    
                                                                                                    
                                                                                                    
                                                                                                    
                                                                                                    
                                                                                                    
                                                                                                    
                                                                                                    
                                                                                                    
                                                                                                    
                                                                                                    
                                                                                                    
                                                                                                    
                                                                                                    
                                                                                                    
                                                                                                    
                                                                                                    
                                                                                                    
                                                                                                    
                                                                                                    
                           
<?xpacket end="w"?></metadata>
<defs>
    <style>
      .cls-1 {
        fill: #8ec500;
        fill-rule: evenodd;
      }
    </style>
  </defs>
  <path id="Composite_Path" data-name="Composite Path" class="cls-1" d="M1123.53,2850.1l0.04-.03a10.263,10.263,0,0,1,4.02-1.05,0.911,0.911,0,0,0,.84-0.96,0.891,0.891,0,0,0-.96-0.83,12.23,12.23,0,0,0-4.71,1.24l-0.05.03a0.9,0.9,0,0,0-.4,1.2A0.911,0.911,0,0,0,1123.53,2850.1Zm-8.11,4.12,4.05-2.06a0.9,0.9,0,1,0-.81-1.6l-4.05,2.06a0.889,0.889,0,0,0-.4,1.2A0.9,0.9,0,0,0,1115.42,2854.22Zm-8.75,3.09c1.53-.36,3.04-0.79,4.45-1.27a0.912,0.912,0,0,0,.56-1.15,0.9,0.9,0,0,0-1.14-.55c-1.35.46-2.81,0.88-4.29,1.23A0.9,0.9,0,1,0,1106.67,2857.31Zm-9.22,1.2h0.08a33.356,33.356,0,0,0,4.59-.33,0.916,0.916,0,0,0,.77-1.02,0.9,0.9,0,0,0-1.02-.76,29.792,29.792,0,0,1-4.31.31h-0.08A0.9,0.9,0,1,0,1097.45,2858.51Zm-9.08-.11,4.54,0.05a0.9,0.9,0,1,0,.02-1.8l-4.54-.05A0.9,0.9,0,0,0,1088.37,2858.4Zm-7.79,2.79a12.582,12.582,0,0,1,3.66-2.12,0.912,0.912,0,0,0,.53-1.16,0.9,0.9,0,0,0-1.16-.52,14.822,14.822,0,0,0-4.18,2.41,0.892,0.892,0,0,0-.12,1.26A0.9,0.9,0,0,0,1080.58,2861.19Zm-4.32,7.21,0.72-2.19a9.862,9.862,0,0,1,.84-1.85,0.9,0.9,0,1,0-1.55-.9,11.1,11.1,0,0,0-1,2.19l-0.72,2.2A0.9,0.9,0,0,0,1076.26,2868.4Zm-2.91,8.67c0.24-.6.46-1.18,0.64-1.74l0.86-2.62a0.9,0.9,0,0,0-1.71-.55l-0.86,2.62c-0.17.51-.37,1.05-0.6,1.61a0.894,0.894,0,0,0,.49,1.17A0.905,0.905,0,0,0,1073.35,2877.07Zm-4.48,8.1c0.87-1.26,1.7-2.6,2.44-3.93a0.9,0.9,0,0,0-1.57-.87c-0.72,1.28-1.52,2.57-2.35,3.79A0.9,0.9,0,1,0,1068.87,2885.17Zm-6.05,6.99,1.68-1.64c0.52-.5,1.04-1.06,1.56-1.66a0.9,0.9,0,1,0-1.37-1.17c-0.49.57-.97,1.09-1.44,1.54l-1.69,1.64a0.9,0.9,0,1,0,1.26,1.29h0Zm-1.49,30.68a29.649,29.649,0,0,0-1.59-3.84l-0.22-.45a0.9,0.9,0,0,0-1.61.82l0.23,0.44a29.221,29.221,0,0,1,1.49,3.61A0.9,0.9,0,0,0,1061.33,2922.84Zm2.13,8.98c-0.21-1.48-.5-3.02-0.86-4.54a0.9,0.9,0,0,0-1.08-.67,0.914,0.914,0,0,0-.67,1.09,44.348,44.348,0,0,1,.82,4.36,0.9,0.9,0,0,0,1.02.77A0.907,0.907,0,0,0,1063.46,2931.82Zm0.25,9.18,0.07-4.53a0.9,0.9,0,0,0-1.8-.02l-0.07,4.53a0.9,0.9,0,0,0,.89.91A0.909,0.909,0,0,0,1063.71,2941Zm0.59,8.65a10.052,10.052,0,0,1-.66-3.66v-0.46a0.9,0.9,0,0,0-.88-0.91,0.918,0.918,0,0,0-.92.89v0.46a11.85,11.85,0,0,0,.77,4.31,0.912,0.912,0,0,0,1.16.53A0.9,0.9,0,0,0,1064.3,2949.65Zm5.29,6.39a11.792,11.792,0,0,1-3.18-2.74,0.9,0.9,0,0,0-1.39,1.14,13.538,13.538,0,0,0,3.65,3.15A0.9,0.9,0,1,0,1069.59,2956.04Zm8.36,2.95-4.32-1.4a0.9,0.9,0,0,0-1.13.58,0.888,0.888,0,0,0,.57,1.13l4.32,1.4a0.917,0.917,0,0,0,1.14-.58A0.9,0.9,0,0,0,1077.95,2958.99Zm8.54,3.51a39.782,39.782,0,0,0-4.18-2.03,0.918,0.918,0,0,0-1.18.5,0.894,0.894,0,0,0,.49,1.17,36.951,36.951,0,0,1,3.99,1.93,0.913,0.913,0,0,0,1.23-.35A0.9,0.9,0,0,0,1086.49,2962.5Zm7.63,5.21a45.8,45.8,0,0,0-3.7-2.8,0.91,0.91,0,0,0-1.25.24,0.9,0.9,0,0,0,.24,1.25,38.739,38.739,0,0,1,3.53,2.68A0.9,0.9,0,0,0,1094.12,2967.71Zm6.46,6.47-3.17-3.24a0.9,0.9,0,1,0-1.29,1.25l3.17,3.25A0.9,0.9,0,0,0,1100.58,2974.18Zm6.96,4.77a11.542,11.542,0,0,1-3.81-1.75,0.911,0.911,0,0,0-1.26.21,0.9,0.9,0,0,0,.21,1.25,13.543,13.543,0,0,0,4.39,2.03A0.9,0.9,0,0,0,1107.54,2978.95Zm8.22-.65-0.02.01a10.339,10.339,0,0,1-4,1.05,0.9,0.9,0,0,0-.83.96,0.881,0.881,0,0,0,.95.83,12.134,12.134,0,0,0,4.69-1.24l0.02-.01A0.9,0.9,0,1,0,1115.76,2978.3Zm8.1-4.12-4.05,2.06a0.9,0.9,0,0,0,.82,1.6l4.05-2.06A0.9,0.9,0,1,0,1123.86,2974.18Zm8.75-3.11c-1.53.37-3.04,0.8-4.45,1.28a0.912,0.912,0,0,0-.56,1.15,0.884,0.884,0,0,0,1.14.55c1.35-.46,2.81-0.88,4.29-1.23a0.9,0.9,0,0,0,.67-1.08A0.914,0.914,0,0,0,1132.61,2971.07Zm9.22-1.2h-0.06a32.318,32.318,0,0,0-4.61.34,0.9,0.9,0,0,0,.25,1.78,28.914,28.914,0,0,1,4.34-.32h0.05A0.9,0.9,0,1,0,1141.83,2969.87Zm9.09,0.12-4.55-.06a0.9,0.9,0,0,0-.02,1.8l4.54,0.05A0.9,0.9,0,1,0,1150.92,2969.99Zm7.79-2.78a12.915,12.915,0,0,1-3.66,2.11,0.9,0.9,0,1,0,.62,1.69,14.925,14.925,0,0,0,4.18-2.41,0.892,0.892,0,0,0,.13-1.26A0.9,0.9,0,0,0,1158.71,2967.21Zm4.33-7.21-0.71,2.18a9.18,9.18,0,0,1-.86,1.86,0.9,0.9,0,1,0,1.55.91,11.427,11.427,0,0,0,1.02-2.22l0.71-2.17A0.9,0.9,0,0,0,1163.04,2960Zm2.91-8.66q-0.36.885-.63,1.71l-0.87,2.64a0.9,0.9,0,0,0,1.71.56l0.87-2.65c0.16-.5.36-1.03,0.59-1.58a0.907,0.907,0,0,0-.5-1.17A0.894,0.894,0,0,0,1165.95,2951.34Zm4.47-8.1c-0.87,1.26-1.69,2.59-2.43,3.93a0.885,0.885,0,0,0,.35,1.22,0.9,0.9,0,0,0,1.22-.35c0.71-1.29,1.51-2.58,2.35-3.8A0.9,0.9,0,1,0,1170.42,2943.24Zm6.05-7-1.67,1.62c-0.52.51-1.04,1.07-1.57,1.68a0.9,0.9,0,0,0,1.37,1.17,20.364,20.364,0,0,1,1.46-1.56l1.67-1.62A0.9,0.9,0,0,0,1176.47,2936.24Zm1.51-30.67a29.914,29.914,0,0,0,1.59,3.82l0.23,0.46a0.9,0.9,0,0,0,1.61-.82l-0.24-.46a28.281,28.281,0,0,1-1.48-3.59,0.884,0.884,0,0,0-1.14-.55A0.9,0.9,0,0,0,1177.98,2905.57Zm-2.13-8.98c0.21,1.48.5,3.02,0.86,4.54a0.9,0.9,0,1,0,1.75-.42,43.99,43.99,0,0,1-.82-4.37,0.9,0.9,0,0,0-1.02-.76A0.907,0.907,0,0,0,1175.85,2896.59Zm-0.25-9.18-0.07,4.53a0.9,0.9,0,0,0,1.8.02l0.07-4.53a0.9,0.9,0,0,0-.89-0.91A0.89,0.89,0,0,0,1175.6,2887.41Zm-0.59-8.66a9.948,9.948,0,0,1,.66,3.64l-0.01.48a0.9,0.9,0,0,0,1.8.03l0.01-.49a11.9,11.9,0,0,0-.77-4.28A0.9,0.9,0,0,0,1175.01,2878.75Zm-5.27-6.4a11.97,11.97,0,0,1,3.17,2.75,0.9,0.9,0,0,0,1.4-1.14,13.911,13.911,0,0,0-3.65-3.16,0.9,0.9,0,0,0-1.23.32A0.886,0.886,0,0,0,1169.74,2872.35Zm-8.36-2.95,4.32,1.4a0.917,0.917,0,0,0,1.14-.58,0.9,0.9,0,0,0-.58-1.13l-4.32-1.4a0.9,0.9,0,0,0-1.13.58A0.888,0.888,0,0,0,1161.38,2869.4Zm-8.54-3.5a41.7,41.7,0,0,0,4.18,2.02,0.918,0.918,0,0,0,1.18-.5,0.894,0.894,0,0,0-.49-1.17,36.951,36.951,0,0,1-3.99-1.93A0.9,0.9,0,0,0,1152.84,2865.9Zm-7.63-5.21a42.008,42.008,0,0,0,3.7,2.79,0.9,0.9,0,0,0,1.25-.24,0.887,0.887,0,0,0-.24-1.24,40.649,40.649,0,0,1-3.53-2.68,0.9,0.9,0,0,0-1.27.1A0.893,0.893,0,0,0,1145.21,2860.69Zm-6.46-6.47,3.16,3.24a0.9,0.9,0,0,0,1.3-1.25l-3.17-3.25A0.9,0.9,0,0,0,1138.75,2854.22Zm-6.96-4.79a11.884,11.884,0,0,1,3.81,1.77,0.907,0.907,0,0,0,1.25-.21,0.894,0.894,0,0,0-.2-1.25,13.266,13.266,0,0,0-4.39-2.04,0.9,0.9,0,0,0-1.1.63A0.889,0.889,0,0,0,1131.79,2849.43Z" transform="translate(-1057.81 -2847.22)"/>
</svg>
