<svg xmlns="http://www.w3.org/2000/svg" width="55.82" height="40.03" viewBox="0 0 55.82 40.03">
  <metadata><?xpacket begin="﻿" id="W5M0MpCehiHzreSzNTczkc9d"?>
<x:xmpmeta xmlns:x="adobe:ns:meta/" x:xmptk="Adobe XMP Core 5.6-c142 79.160924, 2017/07/13-01:06:39        ">
   <rdf:RDF xmlns:rdf="http://www.w3.org/1999/02/22-rdf-syntax-ns#">
      <rdf:Description rdf:about=""/>
   </rdf:RDF>
</x:xmpmeta>
                                                                                                    
                                                                                                    
                                                                                                    
                                                                                                    
                                                                                                    
                                                                                                    
                                                                                                    
                                                                                                    
                                                                                                    
                                                                                                    
                                                                                                    
                                                                                                    
                                                                                                    
                                                                                                    
                                                                                                    
                                                                                                    
                                                                                                    
                                                                                                    
                                                                                                    
                                                                                                    
                           
<?xpacket end="w"?></metadata>
<defs>
    <style>
      .cls-1 {
        fill: #7dbd00;
        fill-rule: evenodd;
      }
    </style>
  </defs>
  <path id="Composite_Path" data-name="Composite Path" class="cls-1" d="M1159.81,2902.25a11.638,11.638,0,0,0-.8,1.97,6.327,6.327,0,0,1-2.51,3.76,8.546,8.546,0,0,1-5.9,1.39c-0.26-.01-0.49-0.02-0.71-0.02q0.09-.345.18-0.75a8.164,8.164,0,0,1,3.08-5.28,6.108,6.108,0,0,1,4.45-1.04A10.922,10.922,0,0,0,1159.81,2902.25Zm-15.92,11.81,4.91-3.51,0.37,0.07,1.6,0.31c1.58,0.26,4.99.85,6.51,1.12a5.811,5.811,0,0,1-6.38,3.22Zm-1.54,1.1,2.18,0.41c1.77,0.29,5.61.95,7.24,1.24a6.489,6.489,0,0,1-7.11,3.66l-7.85-1.35ZM1129,2924.7l6.25-4.47,2.43,0.45c1.98,0.32,6.32,1.07,8.08,1.37a7.259,7.259,0,0,1-7.96,4.17Zm7.49-15.58c-0.3,1.72-1.06,5.99-1.38,7.93l-0.53,2.18-6.25,4.47,1.51-8.58A7.067,7.067,0,0,1,1136.49,2909.12Zm-15.79,21.52,6.73-4.81,2.58,0.47c2.12,0.35,6.8,1.15,8.63,1.46a7.748,7.748,0,0,1-8.51,4.5Zm6.61-8.15-0.56,2.34,0.18-.13,1.73-9.77a9.073,9.073,0,0,1,.61-2.15c-1.34.06-7.68,0.69-8.81,7.45l-1.84,10.41-11.98,8.57-0.08.05s0.01,0,.7.98l12.06-8.62,10.61,1.82c7.52,1.23,10.1-5.87,10.13-5.94,5.23-.51,7.1-5.65,7.12-5.71l-0.05-.1c4.45-.68,6.06-5.09,6.08-5.14l-0.04-.06c4.06-.64,5.53-4.65,5.55-4.7l-0.46-.79s-1.96-.35-3.95-0.69a8.6,8.6,0,0,0,2.89-1.35,7.614,7.614,0,0,0,2.96-4.37,5.711,5.711,0,0,1,2.21-3.4l-0.7-.97a5.455,5.455,0,0,1-4,.86,7.279,7.279,0,0,0-5.22,1.26,7.989,7.989,0,0,0-2.08,2.17l0.64-3.6-0.57-.71c-0.06,0-4.57-.06-6.48,3.68h0.19l0.57,0.7c-0.01.06-.89,5.01-1.31,7.46,0.4-2.22.94-5.21,1.03-5.77a5.661,5.661,0,0,1,5.25-4.82c-0.26,1.49-.86,4.83-1.11,6.36l-0.45,1.74-4.9,3.5,0.1-.54,0.08-.47c0.42-2.45,1.3-7.4,1.31-7.46l-0.57-.7h-0.19a7.616,7.616,0,0,0-.71,2.19l-0.99,5.58-0.1.56-0.02.1-0.46,1.85-5.53,3.95c0.43-2.37,1.23-6.89,1.35-7.62a6.315,6.315,0,0,1,5.91-5.37c-0.26,1.45-.83,4.66-1.15,6.53l0.99-5.58a7.616,7.616,0,0,1,.71-2.19c-0.93.04-5.01,0.39-6.87,4-0.9.03-5.87,0.38-7.82,4.9a9.073,9.073,0,0,0-.61,2.15l-1.73,9.77-0.18.13-6.72,4.81,1.62-9.21a7.533,7.533,0,0,1,7.13-6.42C1128.47,2915.81,1127.66,2920.41,1127.31,2922.49Z" transform="translate(-1106.56 -2900.22)"/>
</svg>
