<svg xmlns="http://www.w3.org/2000/svg" width="21.62" height="27.53" viewBox="0 0 21.62 27.53">
  <metadata><?xpacket begin="﻿" id="W5M0MpCehiHzreSzNTczkc9d"?>
<x:xmpmeta xmlns:x="adobe:ns:meta/" x:xmptk="Adobe XMP Core 5.6-c142 79.160924, 2017/07/13-01:06:39        ">
   <rdf:RDF xmlns:rdf="http://www.w3.org/1999/02/22-rdf-syntax-ns#">
      <rdf:Description rdf:about=""/>
   </rdf:RDF>
</x:xmpmeta>
                                                                                                    
                                                                                                    
                                                                                                    
                                                                                                    
                                                                                                    
                                                                                                    
                                                                                                    
                                                                                                    
                                                                                                    
                                                                                                    
                                                                                                    
                                                                                                    
                                                                                                    
                                                                                                    
                                                                                                    
                                                                                                    
                                                                                                    
                                                                                                    
                                                                                                    
                                                                                                    
                           
<?xpacket end="w"?></metadata>
<defs>
    <style>
      .cls-1 {
        fill: #7dbd00;
        fill-rule: evenodd;
      }
    </style>
  </defs>
  <path id="Composite_Path" data-name="Composite Path" class="cls-1" d="M1097.41,2908l-1.87-.46-0.09-.02-0.57-.1-5.58-.97a7.321,7.321,0,0,1-2.19-.7,7.321,7.321,0,0,0,2.19.7l5.58,0.97c-1.88-.31-5.09-0.87-6.53-1.12a6.267,6.267,0,0,0,5.37,5.88c0.73,0.11,5.25.91,7.64,1.32Zm-11.89-18.06a10.721,10.721,0,0,0,1.96.79,6.343,6.343,0,0,1,3.77,2.5,8.471,8.471,0,0,1,1.38,5.88c-0.01.26-.02,0.49-0.03,0.71-0.22-.06-0.47-0.12-0.74-0.18a8.209,8.209,0,0,1-5.3-3.06,6.03,6.03,0,0,1-1.02-4.43A10.907,10.907,0,0,0,1085.52,2889.94Zm8.28,10.96,0.08-.37,0.31-1.59c0.27-1.58.87-4.98,1.14-6.5a5.775,5.775,0,0,1,3.22,6.35l-1.24,7Zm1.97,5.46-0.39-.07c-2.23-.39-5.31-0.94-5.88-1.03a5.627,5.627,0,0,1-4.82-5.22c1.5,0.26,4.84.84,6.38,1.09l1.74,0.44,3.5,4.88Zm7.53,8.1,1.63-9.26c1.08-6.47-5.04-8.69-5.1-8.71l-0.06.03c-0.63-4.04-4.65-5.5-4.7-5.51l-0.79.46-0.7,3.94a8.474,8.474,0,0,0-1.35-2.88,7.537,7.537,0,0,0-4.37-2.94,5.739,5.739,0,0,1-3.4-2.2l-0.98.7a5.43,5.43,0,0,1,.86,3.99,7.147,7.147,0,0,0,1.24,5.2,7.8,7.8,0,0,0,2.17,2.07l-3.6-.63-0.71.58c0,0.05-.07,4.56,3.67,6.45,0.04,1.1.52,6.64,6.41,7.61,0.98,0.16,9,1.57,9.08,1.59l0.24-.39Zm-4.89-7.13,0.42-2.18c0.29-1.76.97-5.6,1.26-7.23a6.452,6.452,0,0,1,3.65,7.09l-1.38,7.83Z" transform="translate(-1083.44 -2887.41)"/>
</svg>
