<svg xmlns="http://www.w3.org/2000/svg" width="143.37" height="143.06" viewBox="0 0 143.37 143.06">
  <metadata><?xpacket begin="﻿" id="W5M0MpCehiHzreSzNTczkc9d"?>
<x:xmpmeta xmlns:x="adobe:ns:meta/" x:xmptk="Adobe XMP Core 5.6-c142 79.160924, 2017/07/13-01:06:39        ">
   <rdf:RDF xmlns:rdf="http://www.w3.org/1999/02/22-rdf-syntax-ns#">
      <rdf:Description rdf:about=""/>
   </rdf:RDF>
</x:xmpmeta>
                                                                                                    
                                                                                                    
                                                                                                    
                                                                                                    
                                                                                                    
                                                                                                    
                                                                                                    
                                                                                                    
                                                                                                    
                                                                                                    
                                                                                                    
                                                                                                    
                                                                                                    
                                                                                                    
                                                                                                    
                                                                                                    
                                                                                                    
                                                                                                    
                                                                                                    
                                                                                                    
                           
<?xpacket end="w"?></metadata>
<defs>
    <style>
      .cls-1 {
        fill: #fefefe;
        fill-rule: evenodd;
      }
    </style>
  </defs>
  <path id="Path" class="cls-1" d="M1124.07,2843.83a13.06,13.06,0,0,1,14.31,2.35l8.22,8.42a43.09,43.09,0,0,0,14.83,9.2l11.21,3.63a12.973,12.973,0,0,1,8.43,11.75l-0.18,11.77a43.186,43.186,0,0,0,3.94,16.99l5.34,10.48a12.991,12.991,0,0,1-2.39,14.28l-8.46,8.22a43.3,43.3,0,0,0-9.26,14.82l-3.67,11.19a13.08,13.08,0,0,1-11.8,8.44l-11.8-.15a43.422,43.422,0,0,0-17.03,3.98l-10.53,5.35a13.046,13.046,0,0,1-14.3-2.35l-8.22-8.42a43.09,43.09,0,0,0-14.83-9.2l-11.21-3.63a12.962,12.962,0,0,1-8.43-11.75l0.17-11.77a42.966,42.966,0,0,0-3.94-16.98l-5.33-10.49a12.975,12.975,0,0,1,2.39-14.27l8.46-8.22a43.545,43.545,0,0,0,9.26-14.82l3.67-11.2a13.1,13.1,0,0,1,11.8-8.44l11.8,0.15a43.463,43.463,0,0,0,17.03-3.98Z" transform="translate(-1047.97 -2842.66)"/>
</svg>
